PathFileType	4	(X/Y/Z)	c:/Users/goper/Files/vsCode/490R/osim_files/C15/C15_Slow_04.trc
DataRate	CameraRate	NumFrames	NumMarkers	Units                	OrigDataRate	OrigDataStartFrame	OrigNumFrames
250.00	250.00	4	36	mm	250.0	1895	3031
                Frame#	Time	LPSIS			LASIS			LTH1			LTH2			LTH3			LTH4			LLFE			LMFE			LSH1			LSH2			LSH3			LSH4			LLMAL			LMMAL			LCAL			LMTP5			LTOE			LMTP1			RPSIS			RASIS			RTH1			RTH2			RTH3			RTH4			RLFE			RMFE			RSH1			RSH2			RSH3			RSH4			RLMAL			RMMAL			RCAL			RMTP1			RTOE			RMTP5		
		X1	Y1	Z1	X2	Y2	Z2	X3	Y3	Z3	X4	Y4	Z4	X5	Y5	Z5	X6	Y6	Z6	X7	Y7	Z7	X8	Y8	Z8	X9	Y9	Z9	X10	Y10	Z10	X11	Y11	Z11	X12	Y12	Z12	X13	Y13	Z13	X14	Y14	Z14	X15	Y15	Z15	X16	Y16	Z16	X17	Y17	Z17	X18	Y18	Z18	X19	Y19	Z19	X20	Y20	Z20	X21	Y21	Z21	X22	Y22	Z22	X23	Y23	Z23	X24	Y24	Z24	X25	Y25	Z25	X26	Y26	Z26	X27	Y27	Z27	X28	Y28	Z28	X29	Y29	Z29	X30	Y30	Z30	X31	Y31	Z31	X32	Y32	Z32	X33	Y33	Z33	X34	Y34	Z34	X35	Y35	Z35	X36	Y36	Z36

1895	7.57600	-1280.40808	1007.01086	267.70453	-1448.29761	985.56281	327.91272	-1464.67676	600.64734	396.20721	-1480.39612	558.15845	380.67914	-1511.48047	623.54749	398.50906	-1526.57837	581.76227	388.78094	-1522.86304	496.14951	359.38870	-1543.79956	486.45230	239.60036	-1496.12988	376.30133	367.81998	-1508.49414	333.59180	371.36212	-1555.30872	390.79242	373.09106	-1560.78601	346.51901	377.60049	-1621.32959	88.81088	318.28668	-1639.99377	125.31797	233.56049	-1576.04285	50.47550	268.61029	-1753.99329	77.02541	341.71741	-1798.41614	128.97061	288.00800	-1773.18433	90.80532	227.83311	-1281.59949	1009.98529	145.93855	-1436.53430	981.96277	79.86590	-1327.40601	617.78625	40.58950	-1319.58130	573.96552	50.38683	-1387.06909	609.57159	56.55180	-1373.22974	563.38715	62.56844	-1309.74524	478.08096	79.70128	-1289.92725	469.40948	196.15967	-1195.85217	399.67343	62.96082	-1182.38428	358.24866	62.19136	-1253.28491	372.91214	65.91634	-1230.49414	336.56732	62.16581	-1113.78296	103.76802	135.18062	-1145.84082	123.28270	222.14526	-1045.22778	83.15581	181.08603	-1241.67407	39.83395	226.16254	-1276.89917	56.77734	172.01900	-1216.45715	34.55789	104.74357
1896	7.58000	-1284.74817	1006.71082	268.08542	-1452.62561	985.17480	328.07181	-1469.41797	600.42505	395.88898	-1484.91174	557.94403	380.11850	-1516.16870	623.39923	398.22382	-1531.29309	581.60931	387.92838	-1527.32007	495.90872	358.85028	-1547.51465	486.29373	239.30363	-1499.84265	376.29044	367.46887	-1511.67126	333.45230	370.85751	-1559.14966	390.24899	372.70917	-1564.08533	345.91638	376.84665	-1621.77209	87.65890	317.44727	-1640.39355	123.76067	232.52647	-1576.24878	50.06689	268.03568	-1754.89026	75.21135	340.60468	-1799.64990	126.17501	286.24493	-1774.05627	87.50695	226.29848	-1285.60168	1009.66370	146.42172	-1440.35925	981.49719	80.05009	-1330.73364	617.42432	40.90967	-1322.86133	573.62573	50.69591	-1390.41528	609.13171	56.69654	-1376.50281	562.91748	62.72675	-1313.26782	477.44882	80.13711	-1293.26880	468.97211	196.34589	-1198.50366	400.05286	63.19484	-1184.78296	358.76913	62.33153	-1255.64014	372.77966	66.05318	-1232.75562	336.66434	62.28952	-1114.40405	104.64739	135.15001	-1146.90979	123.63905	221.56050	-1045.62976	84.42519	181.04510	-1241.76624	39.87897	226.06944	-1276.94226	56.68398	172.02086	-1216.45544	34.57753	104.73581
1897	7.58400	-1288.99121	1006.50366	268.61346	-1456.99768	984.84692	328.20215	-1474.10034	600.21320	395.54245	-1489.70166	557.77246	379.67725	-1521.05774	623.09241	397.60501	-1536.04077	581.43732	387.35483	-1531.74451	495.66379	358.23627	-1551.13525	486.12692	239.07980	-1503.12158	376.30731	366.86819	-1514.73694	333.35077	370.31613	-1562.44800	389.35254	371.68359	-1567.17761	345.28256	376.15192	-1622.34106	86.66842	316.69739	-1641.05408	122.22549	231.67300	-1576.58179	49.64882	267.66342	-1755.74695	73.40331	339.50058	-1800.78198	123.57498	284.52289	-1774.93530	84.38757	224.87746	-1289.89038	1009.20697	146.94255	-1444.32861	981.02045	80.22639	-1333.96045	617.08179	41.21495	-1326.19580	573.23517	51.03308	-1393.90857	608.68835	56.87142	-1379.74646	562.48303	62.86362	-1316.17798	477.29367	80.06189	-1296.72046	468.55133	196.51642	-1201.21375	400.40604	63.38827	-1187.25806	359.15921	62.56971	-1258.22986	372.72556	66.15663	-1235.02307	336.75424	62.44727	-1114.90771	105.48146	135.07973	-1147.54761	124.29015	221.43541	-1046.12183	85.70496	180.95689	-1241.84644	39.92543	225.95996	-1277.00195	56.65398	171.93991	-1216.47498	34.58854	104.74283
1898	7.58800	-1293.36340	1006.28668	269.16013	-1461.50256	984.49268	328.39343	-1478.98572	599.94281	395.18451	-1494.60046	557.60901	379.14969	-1525.93018	622.88470	397.15424	-1540.70557	581.08350	387.07397	-1536.22107	495.46555	357.73904	-1554.64136	485.80484	238.86426	-1506.78894	376.31128	366.53687	-1517.73254	333.23840	369.88406	-1566.14136	388.77100	371.05054	-1570.44958	344.72174	375.51059	-1622.94763	85.99399	316.07645	-1641.54761	121.05003	230.85538	-1577.07520	49.41309	267.31088	-1756.72717	71.62487	338.44913	-1801.81787	121.09286	282.99554	-1775.47205	81.51040	223.61996	-1293.80115	1009.04449	147.42116	-1448.34521	980.55933	80.38651	-1337.32739	616.72900	41.51039	-1329.49561	572.86871	51.32861	-1397.41516	608.26068	57.00522	-1383.20251	562.05823	63.00062	-1319.82129	476.74191	80.44025	-1300.29578	468.12729	196.66870	-1204.04712	400.79230	63.54746	-1189.77075	359.66769	62.70974	-1260.87720	372.66968	66.28624	-1237.38782	336.91296	62.47749	-1115.57190	106.29356	134.94809	-1148.39038	124.96233	221.29871	-1046.61108	87.09483	180.85544	-1241.95715	39.98573	225.83545	-1276.98743	56.69559	171.77174	-1216.51062	34.57436	104.74856
